<?xml version="1.0" encoding="UTF-8"?>
<svg id="Layer_2" data-name="Layer 2" xmlns="http://www.w3.org/2000/svg" xmlns:xlink="http://www.w3.org/1999/xlink" viewBox="0 0 39.72 33.14">
  <defs>
    <style>
      .cls-1 {
        fill: url(#linear-gradient-9);
        stroke: url(#linear-gradient-10);
      }

      .cls-1, .cls-2, .cls-3, .cls-4, .cls-5, .cls-6 {
        stroke-width: .25px;
      }

      .cls-2 {
        fill: url(#linear-gradient);
        stroke: url(#linear-gradient-2);
      }

      .cls-3 {
        fill: url(#linear-gradient-11);
        stroke: url(#linear-gradient-12);
      }

      .cls-4 {
        fill: url(#linear-gradient-7);
        stroke: url(#linear-gradient-8);
      }

      .cls-5 {
        fill: url(#linear-gradient-5);
        stroke: url(#linear-gradient-6);
      }

      .cls-6 {
        fill: url(#linear-gradient-3);
        stroke: url(#linear-gradient-4);
      }
    </style>
    <linearGradient id="linear-gradient" x1="5.39" y1="24.62" x2="29.42" y2="24.62" gradientUnits="userSpaceOnUse">
      <stop offset=".26" stop-color="#ffdb6e"/>
      <stop offset="1" stop-color="#ffbc5e"/>
    </linearGradient>
    <linearGradient id="linear-gradient-2" x1="5.26" x2="29.54" xlink:href="#linear-gradient"/>
    <linearGradient id="linear-gradient-3" x1="15.74" y1="11.33" x2="34.33" y2="11.33" xlink:href="#linear-gradient"/>
    <linearGradient id="linear-gradient-4" x1="15.62" y1="11.33" x2="34.45" y2="11.33" xlink:href="#linear-gradient"/>
    <linearGradient id="linear-gradient-5" x1="16.73" y1="16.24" x2="24.3" y2="16.24" xlink:href="#linear-gradient"/>
    <linearGradient id="linear-gradient-6" x1="16.61" y1="16.24" x2="24.42" y2="16.24" xlink:href="#linear-gradient"/>
    <linearGradient id="linear-gradient-7" x1="29.07" y1="28.08" x2="39.59" y2="28.08" xlink:href="#linear-gradient"/>
    <linearGradient id="linear-gradient-8" x1="28.94" y1="28.08" x2="39.72" y2="28.08" xlink:href="#linear-gradient"/>
    <linearGradient id="linear-gradient-9" x1="31.7" y1="21.83" x2="36.96" y2="21.83" xlink:href="#linear-gradient"/>
    <linearGradient id="linear-gradient-10" x1="31.57" y1="21.83" x2="37.09" y2="21.83" xlink:href="#linear-gradient"/>
    <linearGradient id="linear-gradient-11" x1=".12" y1="8.02" x2="14.43" y2="8.02" xlink:href="#linear-gradient"/>
    <linearGradient id="linear-gradient-12" x1="0" y1="8.02" x2="14.55" y2="8.02" xlink:href="#linear-gradient"/>
  </defs>
  <g id="Layer_2-2" data-name="Layer 2">
    <g>
      <path class="cls-2" d="M28.76,27.75H8.68c-1.09,0-1.97-.89-1.97-1.97h20.52c.36,0,.66-.3.66-.66s-.3-.66-.66-.66H6.7v-7.57c0-.36-.3-.66-.66-.66s-.66.3-.66.66v8.89c0,1.82,1.47,3.29,3.29,3.29h7.12l-.44,2.63h-2.07c-.36,0-.66.3-.66.66s.3.66.66.66h13.16c.36,0,.66-.3.66-.66s-.3-.66-.66-.66h-2.07l-.44-2.63h4.83c.36,0,.66-.3.66-.66s-.3-.66-.66-.66h0ZM23.03,31.7h-6.34l.44-2.63h5.47l.44,2.63h0Z"/>
      <path class="cls-6" d="M16.4,8.02h14.64c1.09,0,1.97.89,1.97,1.97v5.31c0,.36.3.66.66.66s.66-.3.66-.66v-5.31c0-1.82-1.47-3.29-3.29-3.29h-14.64c-.36,0-.66.3-.66.66s.3.66.66.66Z"/>
      <path class="cls-5" d="M18.71,12.25c-.41-.24-.91-.24-1.32,0-.41.24-.66.66-.66,1.14v5.7c0,.47.24.9.66,1.14.2.12.43.18.66.18s.45-.06.66-.18l4.93-2.85c.41-.24.66-.66.66-1.14s-.24-.9-.66-1.14l-4.93-2.85h0ZM18.05,19.09v-5.7l4.93,2.85-4.93,2.85Z"/>
      <path class="cls-4" d="M39.59,23.81c0-.36-.3-.66-.66-.66s-.66.3-.66.66c0,2.18-1.77,3.95-3.95,3.95s-3.95-1.77-3.95-3.95c0-.36-.3-.66-.66-.66s-.66.3-.66.66c0,2.68,2.01,4.89,4.6,5.22v2.68h-1.32c-.36,0-.66.3-.66.66s.3.66.66.66h3.95c.36,0,.66-.3.66-.66s-.3-.66-.66-.66h-1.32v-2.68c2.59-.32,4.6-2.54,4.6-5.22h0Z"/>
      <path class="cls-1" d="M31.7,19.86v3.95c0,1.45,1.18,2.63,2.63,2.63s2.63-1.18,2.63-2.63v-3.95c0-1.45-1.18-2.63-2.63-2.63s-2.63,1.18-2.63,2.63ZM35.65,19.86v3.95c0,.72-.59,1.32-1.32,1.32s-1.32-.59-1.32-1.32v-3.95c0-.72.59-1.32,1.32-1.32s1.32.59,1.32,1.32Z"/>
      <path class="cls-3" d="M5.89,6.75l7.22-2.2v4.14c-.45-.26-.99-.41-1.57-.41-1.59,0-2.88,1.12-2.88,2.51s1.3,2.51,2.88,2.51,2.88-1.12,2.88-2.51V.78s-.01-.06-.02-.09c0-.03,0-.07,0-.1,0-.01-.01-.02-.02-.03-.01-.05-.04-.08-.07-.12-.02-.03-.04-.07-.07-.1-.03-.03-.07-.05-.1-.08s-.07-.05-.11-.07c-.03-.02-.07-.03-.11-.03-.05-.01-.09-.03-.14-.03-.01,0-.02,0-.03,0-.03,0-.07.01-.09.02-.03,0-.07,0-.1,0L5.04,2.75s-.02.01-.03.01c-.05.01-.09.04-.12.07-.03.02-.07.04-.1.07s-.05.07-.08.1-.05.07-.07.11c-.02.03-.03.07-.03.11-.01.05-.03.09-.03.13,0,.01,0,.02,0,.03v7.91c-.45-.26-.99-.41-1.57-.41-1.59,0-2.88,1.12-2.88,2.51s1.3,2.51,2.88,2.51,2.88-1.12,2.88-2.51v-6.65h0ZM5.89,5.37v-1.51l7.22-2.2v1.51l-7.22,2.2ZM11.54,12c-.87,0-1.57-.54-1.57-1.2s.7-1.2,1.57-1.2,1.57.54,1.57,1.2-.7,1.2-1.57,1.2ZM3.01,14.6c-.87,0-1.57-.54-1.57-1.2s.7-1.2,1.57-1.2,1.57.54,1.57,1.2-.7,1.2-1.57,1.2Z"/>
    </g>
  </g>
</svg>