<?xml version="1.0" encoding="UTF-8"?>
<svg id="Layer_2" data-name="Layer 2" xmlns="http://www.w3.org/2000/svg" xmlns:xlink="http://www.w3.org/1999/xlink" viewBox="0 0 40.01 29.41">
  <defs>
    <style>
      .cls-1 {
        fill: url(#linear-gradient);
        stroke: url(#linear-gradient-2);
      }

      .cls-1, .cls-2, .cls-3, .cls-4 {
        stroke-width: .25px;
      }

      .cls-2 {
        fill: url(#linear-gradient-7);
        stroke: url(#linear-gradient-8);
      }

      .cls-3 {
        fill: url(#linear-gradient-5);
        stroke: url(#linear-gradient-6);
      }

      .cls-4 {
        fill: url(#linear-gradient-3);
        stroke: url(#linear-gradient-4);
      }
    </style>
    <linearGradient id="linear-gradient" x1=".12" y1="14.7" x2="33.26" y2="14.7" gradientUnits="userSpaceOnUse">
      <stop offset=".26" stop-color="#ffdb6e"/>
      <stop offset="1" stop-color="#ffbc5e"/>
    </linearGradient>
    <linearGradient id="linear-gradient-2" x1="0" x2="33.38" xlink:href="#linear-gradient"/>
    <linearGradient id="linear-gradient-3" x1="34.58" y1="14.04" x2="39.88" y2="14.04" xlink:href="#linear-gradient"/>
    <linearGradient id="linear-gradient-4" x1="34.46" y1="14.04" x2="40.01" y2="14.04" xlink:href="#linear-gradient"/>
    <linearGradient id="linear-gradient-5" x1="34.58" y1="5.42" x2="39.88" y2="5.42" xlink:href="#linear-gradient"/>
    <linearGradient id="linear-gradient-6" x1="34.45" y1="5.42" x2="40.01" y2="5.42" xlink:href="#linear-gradient"/>
    <linearGradient id="linear-gradient-7" x1="34.58" y1="22.66" x2="39.88" y2="22.66" xlink:href="#linear-gradient"/>
    <linearGradient id="linear-gradient-8" x1="34.45" y1="22.66" x2="40" y2="22.66" xlink:href="#linear-gradient"/>
  </defs>
  <g id="Layer_3" data-name="Layer 3">
    <path class="cls-1" d="M31.93.12h-1.33c-.73,0-1.33.6-1.33,1.33v.21l-18.02,7.08h-6.5c-1.09,0-1.99.89-1.99,1.99h-.66c-1.09,0-1.99.89-1.99,1.99v2.65c0,1.09.89,1.99,1.99,1.99h.66c0,1.09.89,1.99,1.99,1.99v7.29c0,1.46,1.19,2.65,2.65,2.65s2.65-1.19,2.65-2.65v-7.29h1.2l18.02,7.08v.21c0,.73.6,1.33,1.33,1.33h1.33c.73,0,1.33-.6,1.33-1.33V1.45c0-.73-.6-1.33-1.33-1.33h0ZM2.11,16.03c-.36,0-.66-.3-.66-.66v-2.65c0-.36.3-.66.66-.66h.66v3.98h-.66ZM4.1,17.35v-6.63c0-.36.3-.66.66-.66h5.96v7.95h-5.96c-.36,0-.66-.3-.66-.66h0ZM31.93,26.63h-1.33V1.45h1.33v25.18Z"/>
    <path class="cls-4" d="M35.25,14.7h3.98c.36,0,.66-.3.66-.66s-.3-.66-.66-.66h-3.98c-.36,0-.66.3-.66.66s.3.66.66.66Z"/>
    <path class="cls-3" d="M35.25,7.41c.13,0,.25-.03.36-.11l3.98-2.65c.3-.21.38-.62.19-.92-.21-.3-.62-.38-.92-.19l-3.98,2.65c-.3.21-.38.62-.19.92.13.19.34.3.55.3h0Z"/>
    <path class="cls-2" d="M35.61,20.78c-.3-.21-.72-.12-.92.19s-.12.72.19.92l3.98,2.65c.11.07.24.11.36.11.21,0,.42-.11.55-.3.21-.3.12-.72-.19-.92l-3.98-2.65h0Z"/>
  </g>
</svg>