<?xml version="1.0" encoding="UTF-8"?>
<svg id="Layer_2" data-name="Layer 2" xmlns="http://www.w3.org/2000/svg" xmlns:xlink="http://www.w3.org/1999/xlink" viewBox="0 0 34.5 36.95">
  <defs>
    <style>
      .cls-1 {
        fill: url(#linear-gradient-9);
        stroke: url(#linear-gradient-10);
      }

      .cls-1, .cls-2, .cls-3, .cls-4, .cls-5, .cls-6, .cls-7, .cls-8, .cls-9, .cls-10, .cls-11, .cls-12, .cls-13, .cls-14 {
        stroke-width: .25px;
      }

      .cls-2 {
        fill: url(#linear-gradient);
        stroke: url(#linear-gradient-2);
      }

      .cls-3 {
        fill: url(#linear-gradient-11);
        stroke: url(#linear-gradient-12);
      }

      .cls-4 {
        fill: url(#linear-gradient-13);
        stroke: url(#linear-gradient-14);
      }

      .cls-5 {
        fill: url(#linear-gradient-19);
        stroke: url(#linear-gradient-20);
      }

      .cls-6 {
        fill: url(#linear-gradient-21);
        stroke: url(#linear-gradient-22);
      }

      .cls-7 {
        fill: url(#linear-gradient-23);
        stroke: url(#linear-gradient-24);
      }

      .cls-8 {
        fill: url(#linear-gradient-15);
        stroke: url(#linear-gradient-16);
      }

      .cls-9 {
        fill: url(#linear-gradient-25);
        stroke: url(#linear-gradient-26);
      }

      .cls-10 {
        fill: url(#linear-gradient-27);
        stroke: url(#linear-gradient-28);
      }

      .cls-11 {
        fill: url(#linear-gradient-17);
        stroke: url(#linear-gradient-18);
      }

      .cls-12 {
        fill: url(#linear-gradient-7);
        stroke: url(#linear-gradient-8);
      }

      .cls-13 {
        fill: url(#linear-gradient-5);
        stroke: url(#linear-gradient-6);
      }

      .cls-14 {
        fill: url(#linear-gradient-3);
        stroke: url(#linear-gradient-4);
      }
    </style>
    <linearGradient id="linear-gradient" x1=".12" y1="18.47" x2="34.38" y2="18.47" gradientUnits="userSpaceOnUse">
      <stop offset=".26" stop-color="#ffdb6e"/>
      <stop offset="1" stop-color="#ffbc5e"/>
    </linearGradient>
    <linearGradient id="linear-gradient-2" x1="0" x2="34.5" xlink:href="#linear-gradient"/>
    <linearGradient id="linear-gradient-3" x1="5.63" y1="22.76" x2="14.81" y2="22.76" xlink:href="#linear-gradient"/>
    <linearGradient id="linear-gradient-4" x1="5.51" y1="22.76" x2="14.93" y2="22.76" xlink:href="#linear-gradient"/>
    <linearGradient id="linear-gradient-5" x1="5.63" y1="26.43" x2="14.81" y2="26.43" xlink:href="#linear-gradient"/>
    <linearGradient id="linear-gradient-6" x1="5.51" y1="26.43" x2="14.93" y2="26.43" xlink:href="#linear-gradient"/>
    <linearGradient id="linear-gradient-7" x1="5.63" y1="30.09" x2="14.81" y2="30.09" xlink:href="#linear-gradient"/>
    <linearGradient id="linear-gradient-8" x1="5.51" y1="30.09" x2="14.93" y2="30.09" xlink:href="#linear-gradient"/>
    <linearGradient id="linear-gradient-9" x1="19.7" y1="22.76" x2="28.87" y2="22.76" xlink:href="#linear-gradient"/>
    <linearGradient id="linear-gradient-10" x1="19.57" y1="22.76" x2="29" y2="22.76" xlink:href="#linear-gradient"/>
    <linearGradient id="linear-gradient-11" x1="5.63" y1="19.09" x2="12.36" y2="19.09" xlink:href="#linear-gradient"/>
    <linearGradient id="linear-gradient-12" x1="5.51" y1="19.09" x2="12.48" y2="19.09" xlink:href="#linear-gradient"/>
    <linearGradient id="linear-gradient-13" x1="22.15" y1="19.09" x2="28.87" y2="19.09" xlink:href="#linear-gradient"/>
    <linearGradient id="linear-gradient-14" x1="22.02" y1="19.09" x2="29" y2="19.09" xlink:href="#linear-gradient"/>
    <linearGradient id="linear-gradient-15" x1="19.7" y1="26.43" x2="28.87" y2="26.43" xlink:href="#linear-gradient"/>
    <linearGradient id="linear-gradient-16" x1="19.57" y1="26.43" x2="29" y2="26.43" xlink:href="#linear-gradient"/>
    <linearGradient id="linear-gradient-17" x1="19.7" y1="30.09" x2="28.87" y2="30.09" xlink:href="#linear-gradient"/>
    <linearGradient id="linear-gradient-18" x1="19.57" y1="30.09" x2="29" y2="30.09" xlink:href="#linear-gradient"/>
    <linearGradient id="linear-gradient-19" x1="25.82" y1="4.71" x2="28.26" y2="4.71" xlink:href="#linear-gradient"/>
    <linearGradient id="linear-gradient-20" x1="25.7" y1="4.71" x2="28.39" y2="4.71" xlink:href="#linear-gradient"/>
    <linearGradient id="linear-gradient-21" x1="25.82" y1="7.77" x2="28.27" y2="7.77" xlink:href="#linear-gradient"/>
    <linearGradient id="linear-gradient-22" x1="25.69" y1="7.77" x2="28.39" y2="7.77" xlink:href="#linear-gradient"/>
    <linearGradient id="linear-gradient-23" x1="6.24" y1="4.71" x2="8.69" y2="4.71" xlink:href="#linear-gradient"/>
    <linearGradient id="linear-gradient-24" x1="6.12" y1="4.71" x2="8.82" y2="4.71" xlink:href="#linear-gradient"/>
    <linearGradient id="linear-gradient-25" x1="6.25" y1="7.77" x2="8.69" y2="7.77" xlink:href="#linear-gradient"/>
    <linearGradient id="linear-gradient-26" x1="6.12" y1="7.77" x2="8.82" y2="7.77" xlink:href="#linear-gradient"/>
    <linearGradient id="linear-gradient-27" x1="14.81" y1="11.75" x2="19.7" y2="11.75" xlink:href="#linear-gradient"/>
    <linearGradient id="linear-gradient-28" x1="14.68" y1="11.75" x2="19.82" y2="11.75" xlink:href="#linear-gradient"/>
  </defs>
  <g id="Layer_4" data-name="Layer 4">
    <g>
      <path class="cls-2" d="M32.54,13.58h-.61v-.61c0-1.01-.83-1.83-1.83-1.83h-6.4c.53-1.25.9-2.53.9-3.67C24.59,3.42,21.3.12,17.25.12s-7.34,3.29-7.34,7.34c0,1.14.37,2.42.9,3.67h-6.4c-1.01,0-1.83.83-1.83,1.83v.61h-.61c-1.01,0-1.83.83-1.83,1.83v19.57c0,1.01.83,1.83,1.83,1.83h30.58c1.01,0,1.83-.83,1.83-1.83V15.42c0-1.01-.83-1.83-1.83-1.83h0ZM17.25,1.35c3.37,0,6.12,2.75,6.12,6.12,0,2.41-2.18,6.17-4.04,8.65-.16.21-.24.46-.24.73v.4h-3.67v-.4c0-.27-.09-.52-.24-.73-1.86-2.48-4.04-6.24-4.04-8.65,0-3.37,2.75-6.12,6.12-6.12h0ZM16.64,33.15H4.41c-.34,0-.61-.28-.61-.61V12.97c0-.34.28-.61.61-.61h6.97c1.01,1.99,2.26,3.75,2.82,4.49v.4c0,.45.24.84.61,1.06v1.39c0,.67.55,1.22,1.22,1.22h.61v12.23ZM30.71,32.54c0,.34-.28.61-.61.61h-12.23v-12.23h.61c.67,0,1.22-.55,1.22-1.22v-1.39c.37-.21.61-.61.61-1.06v-.4c.56-.74,1.81-2.5,2.82-4.49h6.97c.34,0,.61.28.61.61v19.57Z"/>
      <path class="cls-14" d="M14.19,22.14h-7.95c-.34,0-.61.28-.61.61s.28.61.61.61h7.95c.34,0,.61-.28.61-.61s-.28-.61-.61-.61Z"/>
      <path class="cls-13" d="M14.19,25.81h-7.95c-.34,0-.61.28-.61.61s.28.61.61.61h7.95c.34,0,.61-.28.61-.61s-.28-.61-.61-.61Z"/>
      <path class="cls-12" d="M14.19,29.48h-7.95c-.34,0-.61.28-.61.61s.28.61.61.61h7.95c.34,0,.61-.28.61-.61s-.28-.61-.61-.61Z"/>
      <path class="cls-1" d="M28.26,22.14h-7.95c-.34,0-.61.28-.61.61s.28.61.61.61h7.95c.34,0,.61-.28.61-.61s-.28-.61-.61-.61Z"/>
      <path class="cls-3" d="M6.24,19.7h5.5c.34,0,.61-.28.61-.61s-.28-.61-.61-.61h-5.5c-.34,0-.61.28-.61.61s.28.61.61.61Z"/>
      <path class="cls-4" d="M28.26,18.47h-5.5c-.34,0-.61.28-.61.61s.28.61.61.61h5.5c.34,0,.61-.28.61-.61s-.28-.61-.61-.61Z"/>
      <path class="cls-8" d="M28.26,25.81h-7.95c-.34,0-.61.28-.61.61s.28.61.61.61h7.95c.34,0,.61-.28.61-.61s-.28-.61-.61-.61Z"/>
      <path class="cls-11" d="M28.26,29.48h-7.95c-.34,0-.61.28-.61.61s.28.61.61.61h7.95c.34,0,.61-.28.61-.61s-.28-.61-.61-.61Z"/>
      <path class="cls-5" d="M26.43,5.63c.09,0,.18-.02.28-.07l1.22-.61c.3-.15.42-.52.28-.82s-.52-.42-.82-.28l-1.22.61c-.3.15-.42.52-.28.82.11.21.32.34.55.34h0Z"/>
      <path class="cls-6" d="M26.15,8.01l1.22.61c.09.04.18.07.28.07.23,0,.44-.12.55-.34.15-.3.03-.67-.28-.82l-1.22-.61c-.31-.15-.67-.03-.82.28-.15.3-.03.67.28.82h0Z"/>
      <path class="cls-7" d="M6.58,4.95l1.22.61c.09.04.18.07.28.07.23,0,.44-.12.55-.34.15-.3.03-.67-.28-.82l-1.22-.61c-.3-.15-.67-.03-.82.28s-.03.67.28.82h0Z"/>
      <path class="cls-9" d="M6.85,8.69c.09,0,.18-.02.28-.07l1.22-.61c.3-.15.42-.52.28-.82-.15-.3-.52-.42-.82-.28l-1.22.61c-.3.15-.42.52-.28.82.11.21.32.34.55.34h0Z"/>
      <path class="cls-10" d="M16.64,10.44v4.98c0,.34.28.61.61.61s.61-.28.61-.61v-4.98c1.05-.28,1.83-1.22,1.83-2.36,0-.34-.28-.61-.61-.61s-.61.28-.61.61c0,.67-.55,1.22-1.22,1.22s-1.22-.55-1.22-1.22c0-.34-.28-.61-.61-.61s-.61.28-.61.61c0,1.14.78,2.09,1.83,2.36Z"/>
    </g>
  </g>
</svg>